<svg id="Layer_1" data-name="Layer 1" xmlns="http://www.w3.org/2000/svg" viewBox="0 0 512 512">
    <title>picket-fence</title>
    <g id="picket-fence">
        <g id="label">
            <path d="M512,256c0,141.39-114.61,256-256,256S0,397.39,0,256,114.61,0,256,0,512,114.62,512,256Z"
                  fill="#a0d468"/>
        </g>
        <g id="fill">
            <path d="M421,304.57V319a13.46,13.46,0,0,1-13.41,13.41H104.42A13.45,13.45,0,0,1,91,319V304.57a13.45,13.45,0,0,1,13.4-13.42H407.56A13.46,13.46,0,0,1,421,304.57Z"
                  fill="#fff" fill-rule="evenodd"/>
            <path d="M421,219.73v14.44a13.45,13.45,0,0,1-13.41,13.4H104.42A13.45,13.45,0,0,1,91,234.17V219.73a13.44,13.44,0,0,1,13.4-13.39H407.56A13.44,13.44,0,0,1,421,219.73Z"
                  fill="#fff" fill-rule="evenodd"/>
            <path d="M138,147.52c7-13.28,21.22-13.8,29.7,0,5.72,9.3,22.27,38.79,22.27,51V351.8a22.34,22.34,0,0,1-22.27,22.28H138a22.33,22.33,0,0,1-22.27-22.28V198.55c0-11.78,16.21-39.48,22.27-51Z"
                  fill="#fff" fill-rule="evenodd"/>
            <path d="M241.14,147.63c7-13.28,21.23-13.81,29.7,0,5.72,9.29,22.27,38.78,22.27,51V351.9a22.33,22.33,0,0,1-22.27,22.28h-29.7a22.34,22.34,0,0,1-22.27-22.28V198.66c0-11.79,16.21-39.48,22.27-51Z"
                  fill="#fff" fill-rule="evenodd"/>
            <path d="M345,148.07c7-13.27,21.22-13.8,29.71,0,5.71,9.3,22.27,38.79,22.27,51V352.35a22.34,22.34,0,0,1-22.27,22.28H345a22.34,22.34,0,0,1-22.27-22.28V199.1c0-11.79,16.21-39.49,22.27-51Z"
                  fill="#fff" fill-rule="evenodd"/>
            <path d="M152.89,221.68a5.27,5.27,0,1,1-5.27,5.27,5.27,5.27,0,0,1,5.27-5.27Z" fill="#fff"
                  fill-rule="evenodd"/>
            <path d="M256,221.68a5.27,5.27,0,1,1-5.28,5.27,5.27,5.27,0,0,1,5.28-5.27Z" fill="#fff" fill-rule="evenodd"/>
            <path d="M359.86,221.68a5.27,5.27,0,1,1-5.27,5.27,5.28,5.28,0,0,1,5.27-5.27Z" fill="#fff"
                  fill-rule="evenodd"/>
            <path d="M152.89,306.52a5.27,5.27,0,1,1-5.27,5.27,5.27,5.27,0,0,1,5.27-5.27Z" fill="#fff"
                  fill-rule="evenodd"/>
            <path d="M256,306.52a5.27,5.27,0,1,1-5.28,5.27,5.27,5.27,0,0,1,5.28-5.27Z" fill="#fff" fill-rule="evenodd"/>
            <path d="M359.86,306.52a5.27,5.27,0,1,1-5.27,5.27,5.28,5.28,0,0,1,5.27-5.27Z" fill="#fff"
                  fill-rule="evenodd"/>
        </g>
        <g id="outline">
            <rect x="190.02" y="326.94" width="28.86" height="10.96" fill="#3d3d3d"/>
            <rect x="293.12" y="326.94" width="29.62" height="10.96" fill="#3d3d3d"/>
            <path d="M407.56,337.89H397v-11h10.58A7.94,7.94,0,0,0,415.5,319V304.57a8,8,0,0,0-7.94-7.94H397v-11h10.58a18.91,18.91,0,0,1,18.89,18.89V319A18.91,18.91,0,0,1,407.56,337.89Z"
                  fill="#3d3d3d"/>
            <rect x="293.12" y="285.68" width="29.62" height="10.96" fill="#3d3d3d"/>
            <rect x="190.02" y="285.68" width="28.86" height="10.96" fill="#3d3d3d"/>
            <path d="M115.77,337.89H104.42A18.9,18.9,0,0,1,85.55,319V304.57a18.91,18.91,0,0,1,18.88-18.89h11.34v11H104.42a7.94,7.94,0,0,0-7.93,7.94V319a7.94,7.94,0,0,0,7.93,7.93h11.34Z"
                  fill="#3d3d3d"/>
            <rect x="190.02" y="242.09" width="28.29" height="10.96" fill="#3d3d3d"/>
            <rect x="293.69" y="242.09" width="29.05" height="10.96" fill="#3d3d3d"/>
            <path d="M407.56,253H397v-11h10.58a7.94,7.94,0,0,0,7.94-7.92V219.73a7.93,7.93,0,0,0-7.94-7.91H397v-11h10.58a18.9,18.9,0,0,1,18.89,18.87v14.44A18.9,18.9,0,0,1,407.56,253Z"
                  fill="#3d3d3d"/>
            <rect x="293.12" y="200.86" width="29.62" height="10.96" fill="#3d3d3d"/>
            <rect x="191.29" y="200.86" width="27.59" height="10.96" fill="#3d3d3d"/>
            <path d="M115.77,253H104.42a18.9,18.9,0,0,1-18.88-18.88V219.73a18.89,18.89,0,0,1,18.88-18.87h11.34v11H104.42a7.93,7.93,0,0,0-7.93,7.91v14.44a7.93,7.93,0,0,0,7.93,7.92h11.34Z"
                  fill="#3d3d3d"/>
            <path d="M167.74,379.56H138a27.78,27.78,0,0,1-27.75-27.76V198.55c0-10.49,9.23-28.35,19.51-47.29,1.3-2.39,2.46-4.53,3.39-6.29h0c4.23-8.05,11-12.82,18.66-13.07,7.85-.23,15.41,4.38,20.56,12.75.23.38,23.09,37.77,23.09,53.9V351.8A27.78,27.78,0,0,1,167.74,379.56Zm-24.86-229.5c-.94,1.8-2.13,4-3.46,6.43-6.36,11.7-18.19,33.48-18.19,42.06V351.8A16.82,16.82,0,0,0,138,368.6h29.7a16.82,16.82,0,0,0,16.8-16.8V198.55c0-9-12.81-34.07-21.47-48.17-3-4.92-7.18-7.85-10.86-7.54-3.58.12-7,2.75-9.33,7.22Z"
                  fill="#3d3d3d"/>
            <path d="M270.84,379.66h-29.7A27.78,27.78,0,0,1,213.4,351.9V198.66c0-10.5,9.24-28.38,19.53-47.32,1.3-2.38,2.45-4.5,3.37-6.26h0c4.24-8.06,11-12.82,18.67-13.08,7.9-.2,15.4,4.38,20.54,12.76.23.37,23.08,37.67,23.08,53.89V351.9A27.78,27.78,0,0,1,270.84,379.66ZM246,150.18c-.94,1.79-2.12,4-3.44,6.39-6.36,11.71-18.2,33.5-18.2,42.09V351.9a16.81,16.81,0,0,0,16.79,16.8h29.7a16.82,16.82,0,0,0,16.8-16.8V198.66c0-9.07-12.81-34.1-21.46-48.15-3-4.93-7.07-7.59-10.85-7.55-3.58.12-7,2.76-9.35,7.23Z"
                  fill="#3d3d3d"/>
            <path d="M374.72,380.11H345a27.78,27.78,0,0,1-27.75-27.76V199.1c0-10.5,9.24-28.38,19.53-47.32,1.3-2.38,2.45-4.51,3.37-6.26h0c4.24-8.05,11-12.82,18.67-13.06,7.88-.42,15.4,4.38,20.55,12.74.23.38,23.08,37.77,23.08,53.91V352.35A27.78,27.78,0,0,1,374.72,380.11ZM349.86,150.62c-.94,1.78-2.12,4-3.44,6.39-6.36,11.71-18.2,33.5-18.2,42.09V352.35a16.82,16.82,0,0,0,16.8,16.8h29.71a16.81,16.81,0,0,0,16.79-16.8V199.1c0-9-12.81-34.07-21.46-48.17-3-4.92-7-7.75-10.85-7.53-3.58.12-7,2.75-9.34,7.22Z"
                  fill="#3d3d3d"/>
            <path d="M152.89,218.42a8.53,8.53,0,1,1-8.53,8.53,8.54,8.54,0,0,1,8.53-8.53Z" fill="#3d3d3d"
                  fill-rule="evenodd"/>
            <path d="M256,218.42a8.53,8.53,0,1,1-8.54,8.53,8.53,8.53,0,0,1,8.54-8.53Z" fill="#3d3d3d"
                  fill-rule="evenodd"/>
            <path d="M359.86,218.43a8.53,8.53,0,1,1-8.53,8.52,8.53,8.53,0,0,1,8.53-8.52Z" fill="#3d3d3d"
                  fill-rule="evenodd"/>
            <path d="M152.89,303.25a8.53,8.53,0,1,1-8.53,8.53,8.54,8.54,0,0,1,8.53-8.53Z" fill="#3d3d3d"
                  fill-rule="evenodd"/>
            <path d="M256,303.25a8.53,8.53,0,1,1-8.54,8.53,8.53,8.53,0,0,1,8.54-8.53Z" fill="#3d3d3d"
                  fill-rule="evenodd"/>
            <path d="M359.86,303.27a8.52,8.52,0,1,1-8.53,8.52,8.52,8.52,0,0,1,8.53-8.52Z" fill="#3d3d3d"
                  fill-rule="evenodd"/>
        </g>
    </g>
</svg>
